# xmcd
#
# Track frame offsets:
#      150
#      17672
#      32905
#      50985
#      66152
#      81615
#      101780
#      116205
#      130530
#      149320
#      166282
#      177852
#      193075
#      205812
# 
# Disc length: 2901 seconds
#
# Revision: 3
# Processed by: cddbd v1.4PL0 Copyright (c) Steve Scherf et al.
#
# Submitted via: FreeRIP 1.21
#
DISCID=d20b530e
DTITLE=Folklok - May Day May Day May Day
DYEAR=1900
DGENRE=country
TTITLE0=Potme
TTITLE1=Nedockava
TTITLE2=Kourova
TTITLE3=Jaro
TTITLE4=Jdu dal
TTITLE5=To se stava
TTITLE6=Obsidian
TTITLE7=Muzikou zpita
TTITLE8=Bludiste
TTITLE9=Nedelni blues
TTITLE10=Na kolenou
TTITLE11=Parta blaznu
TTITLE12=Mela jsem chlapce
TTITLE13=May day
EXTD=
EXTT0=
EXTT1=
EXTT2=
EXTT3=
EXTT4=
EXTT5=
EXTT6=
EXTT7=
EXTT8=
EXTT9=
EXTT10=
EXTT11=
EXTT12=
EXTT13=
PLAYORDER=
